<svg width="134" height="30" viewBox="0 0 134 30" fill="none" xmlns="http://www.w3.org/2000/svg">
<path d="M1.46998 6.71167L12.7682 0.119182C13.0461 -0.0397274 13.3911 -0.0397274 13.669 0.119182L24.779 6.30304C25.4019 6.66172 25.4109 7.57432 24.7924 7.94208L13.4673 14.5164C13.1805 14.6889 12.822 14.6889 12.5351 14.5164L1.45205 8.35071C0.833585 7.98294 0.842548 7.06581 1.46998 6.71167Z" fill="#31C4FF"/>
<path d="M26.6658 21.4585L26.7957 11.3927C26.8495 10.6345 26.0518 10.1214 25.4109 10.5073L15.7306 16.0465C15.4482 16.2145 14.6146 16.8183 14.6146 17.8626V29.0544C14.6146 29.7854 15.3899 30.2394 16.0039 29.8671C16.0039 29.8671 25.4467 24.2144 25.7112 23.9466C25.9756 23.6787 26.6658 23.261 26.6658 21.463V21.4585Z" fill="#3DE9E9"/>
<path d="M1.3669 23.8921C0.560205 23.4835 0.0761876 22.7116 0.0985958 21.8762L0 10.9841C0.0224082 10.2758 0.770841 9.84446 1.37586 10.1941L4.87154 12.2009C5.17629 12.3779 5.35556 12.7139 5.33763 13.0726L5.23455 18.5663C5.19422 19.6424 5.44071 20.387 5.97402 21.0362C6.25637 21.3813 6.60145 21.6673 6.98239 21.8898L12.0287 24.9C12.3111 25.068 12.4858 25.3813 12.4858 25.7173V29.0453C12.4858 29.7672 11.7284 30.2212 11.11 29.8671L1.35794 23.8966L1.3669 23.8921Z" fill="#2EB5BD"/>
<path d="M114.358 8.15994C113.166 7.49252 111.781 7.15654 110.208 7.15654C108.635 7.15654 107.268 7.49252 106.067 8.15994C104.866 8.82736 103.925 9.78536 103.244 11.0249C102.562 12.2689 102.226 13.7626 102.226 15.5107C102.226 17.2587 102.567 18.7479 103.244 20.0191C103.925 21.2904 104.861 22.2711 106.067 22.9612C107.268 23.6514 108.648 23.9964 110.208 23.9964C111.768 23.9964 113.166 23.6514 114.358 22.9612C115.55 22.2711 116.487 21.2904 117.168 20.0191C117.849 18.7479 118.185 17.245 118.185 15.5107C118.185 13.7763 117.845 12.2689 117.168 11.0249C116.487 9.78536 115.55 8.82736 114.358 8.15994ZM114.609 19.161C114.197 20.0963 113.61 20.8182 112.857 21.3313C112.104 21.8443 111.221 22.1031 110.208 22.1031C109.195 22.1031 108.312 21.8443 107.559 21.3313C106.806 20.8182 106.224 20.0918 105.821 19.161C105.413 18.2303 105.211 16.7774 105.211 15.5107C105.211 14.2439 105.413 12.8001 105.821 11.883C106.228 10.9658 106.806 10.2576 107.559 9.7672C108.312 9.27685 109.195 9.02714 110.208 9.02714C111.221 9.02714 112.099 9.27231 112.857 9.7672C113.61 10.2576 114.197 10.9658 114.609 11.883C115.021 12.8001 115.232 14.2485 115.232 15.5107C115.232 16.7728 115.026 18.2257 114.609 19.161Z" fill="#143F66"/>
<path d="M133.073 17.2269C132.76 16.682 132.32 16.2189 131.756 15.8376C131.191 15.4562 130.546 15.1338 129.815 14.8659L127.306 13.917C126.826 13.7399 126.355 13.5538 125.903 13.354C125.446 13.1542 125.195 13.1134 124.733 12.7184C124.419 12.4505 124.204 12.0873 124.204 11.6196C124.204 10.8115 124.778 10.0124 125.786 9.59921C128.726 8.40512 131.545 10.6889 131.545 10.6889L132.948 9.19513C132.267 8.56403 131.447 8.0646 130.487 7.69683C129.528 7.32907 128.507 7.14746 127.431 7.14746C126.27 7.14746 125.235 7.34269 124.325 7.73316C123.415 8.12362 122.698 8.65483 122.187 9.33133C121.672 10.0078 121.417 10.7706 121.417 11.6242C121.417 12.4187 121.605 13.0907 121.977 13.6401C122.349 14.1894 122.824 14.648 123.393 15.0067C123.967 15.3654 124.549 15.6559 125.145 15.8784L127.682 16.85C128.247 17.0725 128.749 17.2859 129.188 17.4902C129.627 17.6945 129.972 17.9488 130.219 18.2484C130.465 18.5481 130.591 18.9522 130.591 19.4516C130.591 20.1281 130.317 20.8228 129.73 21.245C129.143 21.6718 128.381 21.9351 127.288 21.9351C126.391 21.9351 125.517 21.7581 124.666 21.4039C123.81 21.0498 122.824 20.5277 122.161 19.9556L120.596 21.5855C121.444 22.3347 122.425 22.9249 123.541 23.3472C124.661 23.774 125.849 23.9874 127.108 23.9874C128.453 23.9874 129.605 23.7694 130.564 23.3381C131.523 22.9068 132.262 22.3301 132.778 21.6173C133.293 20.9045 133.548 20.1145 133.548 19.2473C133.548 18.4391 133.392 17.7626 133.078 17.2178L133.073 17.2269Z" fill="#143F66"/>
<path d="M95.217 21.7899C91.8781 21.7899 89.8032 19.2337 89.8032 15.5288C89.8032 11.8239 92.0081 9.33587 95.2932 9.33587C96.5928 9.33587 97.7088 9.75358 98.8023 10.6435L100.205 9.14972C98.8605 7.97833 97.05 7.31091 95.2259 7.31091C92.9493 7.31091 90.8832 8.0873 89.3998 9.49478C87.8133 11.0022 86.9797 13.0952 86.9797 15.6151C86.9797 18.1349 87.7954 20.2371 89.346 21.7036C90.7801 23.0611 92.8193 23.8103 95.087 23.8103C97.2606 23.8103 99.107 23.0929 100.573 21.6718L99.1743 20.228C98.0046 21.2768 96.7049 21.7899 95.2125 21.7899H95.217Z" fill="#143F66"/>
<path d="M43.7095 20.9908C43.4227 21.3494 43.0641 21.6264 42.6429 21.8216C42.2216 22.0169 41.751 22.1168 41.2446 22.1168C40.4872 22.1168 39.8284 21.9124 39.2682 21.4993C38.7035 21.0907 38.2688 20.5186 37.9595 19.7921C37.6503 19.0657 37.4935 18.2257 37.4935 17.2768C37.4935 16.3279 37.6503 15.5016 37.9685 14.7842C38.2867 14.0668 38.7259 13.5084 39.2951 13.1043C39.8598 12.7002 40.5096 12.5004 41.2491 12.5004C42.0692 12.5004 42.7459 12.7365 43.2792 13.2042C43.8126 13.6718 44.1487 14.2394 44.2876 14.8977H45.6411C45.538 14.1713 45.2781 13.5356 44.8702 12.9908C44.4624 12.446 43.947 12.0237 43.3196 11.7195C42.6922 11.4199 41.9975 11.2655 41.2267 11.2655C40.2183 11.2655 39.3354 11.5243 38.578 12.0464C37.8161 12.5686 37.2246 13.2814 36.7943 14.194C36.3641 15.1066 36.1534 16.1508 36.1534 17.3222C36.1534 18.4936 36.3641 19.5197 36.7854 20.4278C37.2066 21.3358 37.7982 22.0487 38.5601 22.5708C39.322 23.0929 40.2228 23.3563 41.2536 23.3563C42.0558 23.3563 42.7683 23.1973 43.3913 22.8841C44.0142 22.5708 44.5207 22.1395 44.915 21.5855C45.3094 21.0362 45.5559 20.4096 45.6545 19.7013H44.3011C44.2025 20.1962 44.0053 20.6275 43.7185 20.9862L43.7095 20.9908Z" fill="#143F66"/>
<path d="M55.8323 18.648C55.8323 19.3608 55.6755 19.9647 55.3662 20.455C55.057 20.9454 54.6581 21.3177 54.1786 21.5674C53.6991 21.8171 53.1971 21.9488 52.6773 21.9488C51.8481 21.9488 51.1669 21.6718 50.6336 21.1179C50.1048 20.564 49.8359 19.8285 49.8359 18.9159V11.4289H48.5004V18.9976C48.5004 19.9193 48.6617 20.7002 48.9889 21.3313C49.316 21.9669 49.7642 22.4437 50.3334 22.7706C50.9025 23.0975 51.5568 23.2609 52.2918 23.2609C53.1389 23.2609 53.8559 23.0611 54.4385 22.6661C55.0211 22.2711 55.4514 21.7717 55.7203 21.1724H55.8278V23.1111H57.1634V11.4289H55.8278V18.648H55.8323Z" fill="#143F66"/>
<path d="M68.4526 12.0283C67.7356 11.5243 66.9065 11.27 65.9608 11.27C65.2527 11.27 64.6701 11.3972 64.2085 11.6469C63.7469 11.8966 63.3704 12.2099 63.0881 12.5776C62.8058 12.9499 62.5906 13.3086 62.4383 13.6582H62.3173V7.53338H60.9728V23.1111H62.2724V20.9454H62.4383C62.5951 21.2995 62.8147 21.6627 63.0971 22.035C63.3839 22.4073 63.7603 22.7206 64.2264 22.9749C64.6925 23.2291 65.2796 23.3563 65.9788 23.3563C66.9199 23.3563 67.749 23.102 68.4616 22.5935C69.1742 22.085 69.7299 21.3812 70.1287 20.4732C70.5276 19.5651 70.7248 18.5072 70.7248 17.2995C70.7248 16.0918 70.5231 15.043 70.1243 14.1395C69.7254 13.236 69.1652 12.5277 68.4481 12.0237L68.4526 12.0283ZM68.9725 19.7376C68.6991 20.4686 68.2958 21.0453 67.7624 21.4766C67.2291 21.9079 66.5838 22.1213 65.8174 22.1213C65.0511 22.1213 64.4371 21.9124 63.9127 21.4993C63.3884 21.0861 62.9895 20.514 62.7116 19.7876C62.4338 19.0611 62.2948 18.2257 62.2948 17.2814C62.2948 16.337 62.4338 15.5243 62.7072 14.8069C62.9805 14.0895 63.3794 13.5265 63.9038 13.1179C64.4281 12.7093 65.0645 12.505 65.8129 12.505C66.5614 12.505 67.2336 12.7184 67.7669 13.1406C68.2958 13.5629 68.6991 14.1349 68.9725 14.8569C69.2459 15.5788 69.3803 16.3869 69.3803 17.2814C69.3803 18.1758 69.2414 19.0067 68.968 19.7376H68.9725Z" fill="#143F66"/>
<path d="M81.4987 12.673C81.0371 12.2008 80.5127 11.8466 79.9346 11.6151C79.352 11.3835 78.7514 11.27 78.124 11.27C77.1291 11.27 76.2507 11.5288 75.4933 12.051C74.7359 12.5731 74.1398 13.2905 73.7141 14.2031C73.2883 15.1156 73.0732 16.1645 73.0732 17.3404C73.0732 18.5163 73.2883 19.5651 73.7141 20.4686C74.1398 21.3722 74.7493 22.0804 75.5336 22.5889C76.3179 23.0975 77.2501 23.3517 78.3257 23.3517C79.0965 23.3517 79.7777 23.2246 80.3738 22.9749C80.9654 22.7252 81.4628 22.3892 81.8617 21.976C82.2606 21.5583 82.5474 21.1043 82.7222 20.6139L81.4539 20.1962C81.3104 20.5458 81.0953 20.8682 80.813 21.1588C80.5306 21.4493 80.1811 21.6809 79.7688 21.8534C79.3564 22.0259 78.8769 22.1122 78.3302 22.1122C77.5279 22.1122 76.8378 21.9215 76.2507 21.5401C75.6636 21.1588 75.2154 20.623 74.8972 19.9329C74.5969 19.2836 74.4446 18.5254 74.4266 17.6718H83.009V17.0044C83.009 16.0237 82.8745 15.1792 82.6056 14.4618C82.3367 13.7445 81.9692 13.1497 81.5076 12.673H81.4987ZM74.4311 16.4823C74.4715 15.833 74.6194 15.2246 74.8883 14.6662C75.202 14.0169 75.6367 13.4948 76.1924 13.0998C76.7481 12.7048 77.389 12.505 78.124 12.505C78.8142 12.505 79.4237 12.6821 79.9525 13.0317C80.4813 13.3813 80.8937 13.858 81.1894 14.4573C81.4897 15.0566 81.6376 15.7331 81.6376 16.4823H74.4311Z" fill="#143F66"/>
</svg>
