<svg viewBox="0 0 16 16" fill="none" xmlns="http://www.w3.org/2000/svg">
<path d="M4.55194 9.42589C4.3458 9.42589 4.16147 9.55424 4.08995 9.74757C4.01843 9.94091 4.07486 10.1583 4.23137 10.2925L7.67946 12.3814C7.86393 12.5395 8.13613 12.5395 8.3206 12.3814L11.7687 10.2925C11.9252 10.1583 11.9817 9.94091 11.9102 9.74757C11.8386 9.55424 11.6543 9.42589 11.4482 9.42589H4.55194Z" fill="currentColor"/>
<path d="M11.4482 6.57411C11.6543 6.57411 11.8386 6.44576 11.9102 6.25243C11.9817 6.0591 11.9252 5.84168 11.7687 5.70753L8.32065 3.61859C8.13618 3.46047 7.86397 3.46047 7.6795 3.61859L4.23137 5.70752C4.07486 5.84168 4.01843 6.05909 4.08995 6.25243C4.16147 6.44576 4.3458 6.57411 4.55194 6.57411L11.4482 6.57411Z" fill="currentColor"/>
</svg>