<svg viewBox="0 0 16 16" fill="none" xmlns="http://www.w3.org/2000/svg">
<path fill-rule="evenodd" clip-rule="evenodd" d="M3.59998 1.59998C2.49541 1.59998 1.59998 2.49541 1.59998 3.59998V12.4C1.59998 13.5045 2.49541 14.4 3.59998 14.4H12.4C13.5045 14.4 14.4 13.5045 14.4 12.4V3.59998C14.4 2.49541 13.5045 1.59998 12.4 1.59998H3.59998ZM11.3957 6.42439C11.6754 6.12599 11.6603 5.65729 11.3619 5.37754C11.0635 5.09778 10.5948 5.1129 10.315 5.41131L7.15223 8.78497L5.47066 6.99131C5.19091 6.6929 4.72221 6.67778 4.42381 6.95754C4.1254 7.23729 4.11028 7.70599 4.39004 8.00439L6.61191 10.3744C6.75193 10.5237 6.94751 10.6085 7.15223 10.6085C7.35694 10.6085 7.55253 10.5237 7.69254 10.3744L11.3957 6.42439Z" fill="currentColor"/>
</svg>