<svg viewBox="0 0 16 16" fill="none" xmlns="http://www.w3.org/2000/svg">
<path fill-rule="evenodd" clip-rule="evenodd" d="M3.59998 1.60001C2.49541 1.60001 1.59998 2.49544 1.59998 3.60001V12.4C1.59998 13.5046 2.49541 14.4 3.59998 14.4H12.4C13.5045 14.4 14.4 13.5046 14.4 12.4V3.60001C14.4 2.49544 13.5045 1.60001 12.4 1.60001H3.59998ZM11.3957 6.42442C11.6754 6.12602 11.6603 5.65732 11.3619 5.37757C11.0635 5.09781 10.5948 5.11293 10.315 5.41134L7.15223 8.785L5.47066 6.99134C5.19091 6.69293 4.72221 6.67781 4.42381 6.95757C4.1254 7.23732 4.11028 7.70602 4.39004 8.00442L6.61191 10.3744C6.75193 10.5238 6.94751 10.6085 7.15223 10.6085C7.35694 10.6085 7.55253 10.5238 7.69254 10.3744L11.3957 6.42442Z" fill="currentColor"/>
</svg>