<svg viewBox="0 0 16 16" fill="none" xmlns="http://www.w3.org/2000/svg">
<path d="M12.1 1.60001H3.9C3.26487 1.60001 2.75 2.11488 2.75 2.75001V14.25C2.75 14.8851 3.26487 15.4 3.9 15.4H12.1C12.7351 15.4 13.25 14.8851 13.25 14.25V2.75001C13.25 2.11488 12.7351 1.60001 12.1 1.60001Z" stroke="currentColor" stroke-width="1.2" stroke-linecap="round" stroke-linejoin="round"/>
<rect x="4.8999" y="8" width="1.5" height="1" rx="0.5" fill="currentColor"/>
<rect x="7.6001" y="8" width="3.5" height="1" rx="0.5" fill="currentColor"/>
<circle cx="5.6" cy="10.4" r="0.3" stroke="currentColor" stroke-width="0.6" stroke-linecap="round" stroke-linejoin="round"/>
<circle cx="7.9999" cy="10.4" r="0.3" stroke="currentColor" stroke-width="0.6" stroke-linecap="round" stroke-linejoin="round"/>
<circle cx="10.4" cy="10.4" r="0.3" stroke="currentColor" stroke-width="0.6" stroke-linecap="round" stroke-linejoin="round"/>
<circle cx="5.6" cy="12.4" r="0.3" stroke="currentColor" stroke-width="0.6" stroke-linecap="round" stroke-linejoin="round"/>
<circle cx="7.9999" cy="12.4" r="0.3" stroke="currentColor" stroke-width="0.6" stroke-linecap="round" stroke-linejoin="round"/>
<circle cx="10.4" cy="12.4" r="0.3" stroke="currentColor" stroke-width="0.6" stroke-linecap="round" stroke-linejoin="round"/>
<path d="M6 3.4C5.66863 3.4 5.4 3.66863 5.4 4V5.5C5.4 5.83137 5.66863 6.1 6 6.1H10C10.3314 6.1 10.6 5.83137 10.6 5.5V4C10.6 3.66863 10.3314 3.4 10 3.4H6Z" stroke="currentColor" stroke-width="1.2" stroke-linejoin="round"/>
</svg>