<svg viewBox="0 0 16 16" fill="none" xmlns="http://www.w3.org/2000/svg">
<path fill-rule="evenodd" clip-rule="evenodd" d="M8 1.09998C4.13401 1.09998 1 4.18921 1 7.99997C1 11.8107 4.13401 14.9 8 14.9C11.866 14.9 15 11.8107 15 7.99998C15 4.18921 11.866 1.09998 8 1.09998ZM10.9243 5.92425C11.1586 5.68993 11.1586 5.31003 10.9243 5.07572C10.6899 4.8414 10.31 4.8414 10.0757 5.07572L8 7.15145L5.92426 5.07572C5.68995 4.8414 5.31005 4.8414 5.07573 5.07572C4.84142 5.31003 4.84142 5.68993 5.07573 5.92425L7.15147 7.99998L5.07573 10.0757C4.84142 10.31 4.84142 10.6899 5.07573 10.9242C5.31005 11.1586 5.68995 11.1586 5.92426 10.9242L8 8.84851L10.0757 10.9242C10.31 11.1586 10.6899 11.1586 10.9243 10.9242C11.1586 10.6899 11.1586 10.31 10.9243 10.0757L8.84852 7.99998L10.9243 5.92425Z" fill="currentColor"/>
</svg>