<svg viewBox="0 0 16 16" fill="none" xmlns="http://www.w3.org/2000/svg">
<path d="M2.66669 4.11765H13.3334M6.66669 11.1765V6.94118M9.33335 11.1765V6.94118M10.6667 14H5.33335C4.59697 14 4.00002 13.3679 4.00002 12.5882V4.82353C4.00002 4.43368 4.2985 4.11765 4.66669 4.11765H11.3334C11.7015 4.11765 12 4.43368 12 4.82353V12.5882C12 13.3679 11.4031 14 10.6667 14ZM6.66669 4.11765H9.33335C9.70154 4.11765 10 3.80161 10 3.41176V2.70588C10 2.31603 9.70154 2 9.33335 2H6.66669C6.2985 2 6.00002 2.31603 6.00002 2.70588V3.41176C6.00002 3.80161 6.2985 4.11765 6.66669 4.11765Z" stroke="currentColor" stroke-width="1.2" stroke-linecap="round" stroke-linejoin="round"/>
</svg>