<svg viewBox="0 0 16 16" fill="none" xmlns="http://www.w3.org/2000/svg">
<path d="M5.99982 14.4L5.99982 12C5.99982 11.5582 5.64165 11.2 5.19982 11.2L2.79982 11.2M3.99982 13.2C4.35588 13.5186 4.72535 13.8964 4.95859 14.1418C5.1138 14.3051 5.32825 14.4 5.55354 14.4L11.6 14.4C12.4837 14.4 13.2 13.6837 13.2 12.8L13.2001 3.20004C13.2001 2.31638 12.4837 1.60003 11.6001 1.60003L4.40005 1.6C3.51641 1.6 2.80007 2.31632 2.80004 3.19996L2.79983 11.6814C2.79983 11.886 2.87786 12.0826 3.01984 12.2299C3.28237 12.5022 3.72077 12.9503 3.99982 13.2Z" stroke="currentColor" stroke-width="1.2" stroke-linecap="round" stroke-linejoin="round"/>
</svg>