<svg viewBox="0 0 16 16" fill="none" xmlns="http://www.w3.org/2000/svg">
<path d="M5.99988 14.4L5.99988 12C5.99988 11.5582 5.64171 11.2 5.19988 11.2L2.79988 11.2M3.99989 13.2C4.35594 13.5186 4.72541 13.8964 4.95865 14.1418C5.11386 14.3051 5.32831 14.4 5.5536 14.4L11.6001 14.4C12.4837 14.4 13.2001 13.6837 13.2001 12.8L13.2001 3.20007C13.2001 2.31641 12.4838 1.60006 11.6001 1.60006L4.40011 1.60003C3.51647 1.60003 2.80013 2.31635 2.80011 3.19999L2.79989 11.6815C2.79989 11.886 2.87792 12.0827 3.0199 12.2299C3.28243 12.5023 3.72083 12.9503 3.99989 13.2Z" stroke="currentColor" stroke-width="1.2" stroke-linecap="round" stroke-linejoin="round"/>
</svg>