<svg viewBox="0 0 16 16" fill="none" xmlns="http://www.w3.org/2000/svg">
<path fill-rule="evenodd" clip-rule="evenodd" d="M12 14.6C13.436 14.6 14.6 13.436 14.6 12L14.6 4.00003C14.6 2.56409 13.436 1.40002 12 1.40002H4.00003C2.56409 1.40002 1.40002 2.56408 1.40002 4.00002V12C1.40002 13.436 2.56408 14.6 4.00002 14.6L12 14.6ZM7.10002 4.85001C7.10002 4.35296 7.50296 3.95001 8.00002 3.95001C8.49708 3.95001 8.90002 4.35296 8.90002 4.85001C8.90002 5.34707 8.49708 5.75001 8.00002 5.75001C7.50296 5.75001 7.10002 5.34707 7.10002 4.85001ZM8.00002 6.85001C8.33139 6.85001 8.60002 7.11864 8.60002 7.45001L8.60002 11.45C8.60002 11.7814 8.33139 12.05 8.00002 12.05C7.66865 12.05 7.40002 11.7814 7.40002 11.45L7.40002 7.45001C7.40002 7.11864 7.66865 6.85001 8.00002 6.85001Z" fill="currentColor"/>
</svg>