<svg viewBox="0 0 16 16" fill="none" xmlns="http://www.w3.org/2000/svg">
<path fill-rule="evenodd" clip-rule="evenodd" d="M11.9999 14.6C13.4358 14.6 14.5999 13.4359 14.5999 12L14.5999 4C14.5999 2.56405 13.4358 1.39999 11.9999 1.39999H3.9999C2.56396 1.39999 1.3999 2.56405 1.3999 3.99999V12C1.3999 13.4359 2.56396 14.6 3.9999 14.6L11.9999 14.6ZM7.0999 4.84998C7.0999 4.35293 7.50284 3.94998 7.9999 3.94998C8.49696 3.94998 8.8999 4.35293 8.8999 4.84998C8.8999 5.34704 8.49696 5.74998 7.9999 5.74998C7.50284 5.74998 7.0999 5.34704 7.0999 4.84998ZM7.9999 6.84998C8.33127 6.84998 8.5999 7.1186 8.5999 7.44998L8.5999 11.45C8.5999 11.7813 8.33127 12.05 7.9999 12.05C7.66853 12.05 7.3999 11.7813 7.3999 11.45L7.3999 7.44998C7.3999 7.1186 7.66853 6.84998 7.9999 6.84998Z" fill="currentColor"/>
</svg>