<svg viewBox="0 0 16 16" fill="none" xmlns="http://www.w3.org/2000/svg">
<path d="M1.66667 7.04001L7.66667 10.5067C7.76802 10.5652 7.88298 10.596 8.00001 10.596C8.11703 10.596 8.23199 10.5652 8.33334 10.5067L14.3333 7.04001C14.4344 6.9814 14.5182 6.89729 14.5765 6.79608C14.6348 6.69488 14.6655 6.58013 14.6655 6.46334C14.6655 6.34655 14.6348 6.2318 14.5765 6.1306C14.5182 6.02939 14.4344 5.94528 14.3333 5.88667L8.33334 2.42001C8.23199 2.36149 8.11703 2.33069 8.00001 2.33069C7.88298 2.33069 7.76802 2.36149 7.66667 2.42001L1.66667 5.88667C1.56565 5.94528 1.48179 6.02939 1.4235 6.1306C1.3652 6.2318 1.33452 6.34655 1.33452 6.46334C1.33452 6.58013 1.3652 6.69488 1.4235 6.79608C1.48179 6.89729 1.56565 6.9814 1.66667 7.04001ZM8.00001 3.76667L12.6667 6.43334L8.00001 9.13334L3.33334 6.46L8.00001 3.76667ZM13.6667 8.96L8.00001 12.2333L2.33334 8.96C2.25765 8.91565 2.17395 8.88667 2.08703 8.87473C2.00012 8.86279 1.9117 8.86812 1.82685 8.89041C1.742 8.91271 1.66239 8.95153 1.59257 9.00466C1.52276 9.05779 1.46412 9.12417 1.42001 9.20001C1.37593 9.27609 1.34734 9.36015 1.33588 9.44734C1.32443 9.53452 1.33033 9.62311 1.35326 9.70801C1.37619 9.7929 1.41568 9.87242 1.46947 9.94199C1.52326 10.0115 1.59028 10.0698 1.66667 10.1133L7.66667 13.58C7.76802 13.6385 7.88298 13.6693 8.00001 13.6693C8.11703 13.6693 8.23199 13.6385 8.33334 13.58L14.3333 10.1133C14.4097 10.0698 14.4768 10.0115 14.5305 9.94199C14.5843 9.87242 14.6238 9.7929 14.6468 9.70801C14.6697 9.62311 14.6756 9.53452 14.6641 9.44734C14.6527 9.36015 14.6241 9.27609 14.58 9.20001C14.5359 9.12417 14.4773 9.05779 14.4074 9.00466C14.3376 8.95153 14.258 8.91271 14.1732 8.89041C14.0883 8.86812 13.9999 8.86279 13.913 8.87473C13.8261 8.88667 13.7424 8.91565 13.6667 8.96Z" fill="currentColor"/>
</svg>