<svg viewBox="0 0 16 16" fill="none" xmlns="http://www.w3.org/2000/svg">
<path d="M9.06068 11.182L7.64647 12.5962C7.08386 13.1588 6.3208 13.4749 5.52515 13.4749C4.7295 13.4749 3.96644 13.1588 3.40383 12.5962C2.84122 12.0336 2.52515 11.2705 2.52515 10.4749C2.52515 9.67923 2.84122 8.91617 3.40383 8.35356L4.81804 6.93934M6.93936 4.81802L8.35357 3.40381C8.91618 2.8412 9.67924 2.52513 10.4749 2.52513C11.2705 2.52513 12.0336 2.8412 12.5962 3.40381C13.1588 3.96642 13.4749 4.72948 13.4749 5.52513C13.4749 6.32078 13.1588 7.08384 12.5962 7.64645L11.182 9.06067M10 6.00001L6.00002 10" stroke="currentColor" stroke-width="1.2" stroke-linecap="round" stroke-linejoin="round"/>
</svg>