<svg viewBox="0 0 16 16" fill="none" xmlns="http://www.w3.org/2000/svg">
<path d="M5.09612 7.4182H7.36945V5.14487L4.71723 2.49265C5.56566 2.08745 6.51885 1.95524 7.44553 2.11423C8.37222 2.27323 9.22682 2.7156 9.89166 3.38044C10.5565 4.04528 10.9989 4.89988 11.1579 5.82657C11.3169 6.75325 11.1847 7.70644 10.7795 8.55487L13.5292 11.2071C13.8306 11.5085 14 11.9174 14 12.3438C14 12.7701 13.8306 13.179 13.5292 13.4804C13.2277 13.7819 12.8188 13.9512 12.3925 13.9512C11.9662 13.9512 11.5573 13.7819 11.2558 13.4804L8.50612 10.8282C7.65769 11.2334 6.7045 11.3656 5.77782 11.2066C4.85113 11.0476 3.99653 10.6053 3.33169 9.94041C2.66685 9.27557 2.22448 8.42097 2.06548 7.49428C1.90649 6.5676 2.0387 5.61441 2.4439 4.76598L5.09612 7.4182Z" stroke="currentColor" stroke-width="1.2" stroke-linecap="round" stroke-linejoin="round"/>
</svg>