<svg viewBox="0 0 16 16" fill="none" xmlns="http://www.w3.org/2000/svg">
<path d="M13.6348 11.2553L13.2211 10.8208L13.6348 11.2553ZM13.6348 7.27782L14.0486 6.84328L14.0486 6.84328L13.6348 7.27782ZM2.36518 7.27782L1.95145 6.84328H1.95145L2.36518 7.27782ZM12.6326 6.65123L12.8441 6.08973L12.8441 6.08973L12.6326 6.65123ZM3.65287 6.3415L3.07091 6.19544L3.65287 6.3415ZM3.3667 6.65149L3.57831 7.21294H3.57831L3.3667 6.65149ZM12.3463 6.34122L12.9283 6.19512V6.19512L12.3463 6.34122ZM11.853 4.17938C11.6323 3.93224 11.253 3.91084 11.0058 4.13158C10.7587 4.35232 10.7373 4.73162 10.958 4.97876L11.853 4.17938ZM4.00867 11.4391C3.68261 11.38 3.37039 11.5965 3.31131 11.9225C3.25222 12.2486 3.46865 12.5608 3.79471 12.6199L4.00867 11.4391ZM9.46527 3.95037C9.77429 4.07 10.1218 3.91646 10.2414 3.60744C10.361 3.29842 10.2075 2.95093 9.89849 2.8313L9.46527 3.95037ZM1.63894 11.3499C1.84636 11.6083 2.224 11.6496 2.48243 11.4422C2.74085 11.2348 2.7822 10.8572 2.57477 10.5987L1.63894 11.3499ZM13.9243 2.85688C14.1586 2.62257 14.1586 2.24267 13.9243 2.00835C13.6899 1.77404 13.3101 1.77404 13.0757 2.00835L13.9243 2.85688ZM1.94092 13.1432C1.7066 13.3775 1.7066 13.7574 1.94092 13.9917C2.17523 14.226 2.55513 14.226 2.78945 13.9917L1.94092 13.1432ZM11.5461 12.6791C12.4794 12.6791 13.3801 12.3263 14.0486 11.6898L13.2211 10.8208C12.7816 11.2392 12.1796 11.4791 11.5461 11.4791V12.6791ZM14.0486 11.6898C14.718 11.0524 15.1 10.1814 15.1 9.26656H13.9C13.9 9.8436 13.6595 10.4033 13.2211 10.8208L14.0486 11.6898ZM15.1 9.26656C15.1 8.35175 14.718 7.48073 14.0486 6.84328L13.2211 7.71236C13.6595 8.12981 13.9 8.68953 13.9 9.26656H15.1ZM2.1 9.26656C2.1 8.68953 2.34048 8.12981 2.77892 7.71236L1.95145 6.84328C1.28195 7.48073 0.9 8.35175 0.9 9.26656H2.1ZM14.0486 6.84328C13.7003 6.51175 13.2892 6.25738 12.8441 6.08973L12.4211 7.21272C12.72 7.32529 12.9926 7.49478 13.2211 7.71236L14.0486 6.84328ZM4.23482 6.48756C4.63457 4.8948 6.15338 3.67907 7.99963 3.67907V2.47907C5.62749 2.47907 3.61045 4.04576 3.07091 6.19544L4.23482 6.48756ZM2.77892 7.71236C3.00729 7.49492 3.27965 7.3255 3.57831 7.21294L3.15508 6.09005C2.71026 6.2577 2.29944 6.51196 1.95145 6.84328L2.77892 7.71236ZM3.07091 6.19544C3.0877 6.12856 3.13069 6.09924 3.15508 6.09005L3.57831 7.21294C3.88682 7.09666 4.14701 6.83742 4.23482 6.48756L3.07091 6.19544ZM11.7644 6.48732C11.8522 6.83724 12.1125 7.0965 12.4211 7.21272L12.8441 6.08973C12.8685 6.09891 12.9115 6.12822 12.9283 6.19512L11.7644 6.48732ZM4.45392 12.6791H11.5461V11.4791H4.45392V12.6791ZM10.958 4.97876C11.3435 5.41039 11.6232 5.92499 11.7644 6.48732L12.9283 6.19512C12.7378 5.4363 12.3621 4.74941 11.853 4.17938L10.958 4.97876ZM4.45392 11.4791C4.30332 11.4791 4.1543 11.4655 4.00867 11.4391L3.79471 12.6199C4.01062 12.659 4.23124 12.6791 4.45392 12.6791V11.4791ZM7.99963 3.67907C8.51988 3.67907 9.0144 3.77582 9.46527 3.95037L9.89849 2.8313C9.31085 2.6038 8.66954 2.47907 7.99963 2.47907V3.67907ZM2.57477 10.5987C2.2666 10.2148 2.1 9.74706 2.1 9.26656H0.9C0.9 10.0273 1.16426 10.7585 1.63894 11.3499L2.57477 10.5987ZM13.0757 2.00835L1.94092 13.1432L2.78945 13.9917L13.9243 2.85688L13.0757 2.00835Z" fill="currentColor"/>
</svg>