<svg viewBox="0 0 16 16" fill="none" xmlns="http://www.w3.org/2000/svg">
<path d="M10.2165 8.9815L5.77698 11.5685M5.78348 4.4315L10.2165 7.0185M2.14998 3.45C2.14998 4.52696 3.02302 5.4 4.09998 5.4C5.17693 5.4 6.04998 4.52696 6.04998 3.45C6.04998 2.37304 5.17693 1.5 4.09998 1.5C3.02302 1.5 2.14998 2.37304 2.14998 3.45ZM9.94998 8C9.94998 9.07696 10.823 9.95 11.9 9.95C12.9769 9.95 13.85 9.07696 13.85 8C13.85 6.92304 12.9769 6.05 11.9 6.05C10.823 6.05 9.94998 6.92304 9.94998 8ZM2.14998 12.55C2.14998 13.627 3.02302 14.5 4.09998 14.5C5.17693 14.5 6.04998 13.627 6.04998 12.55C6.04998 11.473 5.17693 10.6 4.09998 10.6C3.02302 10.6 2.14998 11.473 2.14998 12.55Z" stroke="currentColor" stroke-width="1.2" stroke-linecap="round" stroke-linejoin="round"/>
</svg>