<svg viewBox="0 0 18.20001220703125 18.199996948242188" fill="none" xmlns="http://www.w3.org/2000/svg">
<path fill-rule="evenodd" clip-rule="evenodd" d="M9.9999 2.89999C6.07868 2.89999 2.8999 6.07877 2.8999 9.99999C2.8999 13.9212 6.07868 17.1 9.9999 17.1C13.9211 17.1 17.0999 13.9212 17.0999 9.99999C17.0999 6.07877 13.9211 2.89999 9.9999 2.89999ZM8.88682 7.15056C8.67603 7.44333 8.5999 7.81266 8.5999 8.04998C8.5999 8.38135 8.33127 8.64998 7.9999 8.64998C7.66853 8.64998 7.3999 8.38135 7.3999 8.04998C7.3999 7.62063 7.52377 6.98997 7.91298 6.4494C8.32422 5.87823 9.00435 5.44998 9.9999 5.44998C10.979 5.44998 11.6526 5.84284 12.0684 6.36266C12.4616 6.85416 12.5999 7.42728 12.5999 7.79998C12.5999 8.1522 12.5656 8.54141 12.3647 8.94331C12.1657 9.34125 11.8342 9.69142 11.3486 10.0382C10.9661 10.3115 10.785 10.5397 10.6973 10.6989C10.6131 10.8517 10.5999 10.9677 10.5999 11.05C10.5999 11.3814 10.3313 11.65 9.9999 11.65C9.66853 11.65 9.3999 11.3814 9.3999 11.05C9.3999 10.799 9.44922 10.4774 9.64627 10.1198C9.83979 9.76861 10.1587 9.41351 10.6512 9.06174C11.0406 8.78355 11.2091 8.57121 11.2914 8.40665C11.3717 8.24606 11.3999 8.07276 11.3999 7.79998C11.3999 7.67269 11.3382 7.3708 11.1314 7.1123C10.9472 6.88212 10.6208 6.64998 9.9999 6.64998C9.39545 6.64998 9.07558 6.8884 8.88682 7.15056ZM10.8999 13.65C10.8999 14.1471 10.497 14.55 9.9999 14.55C9.50285 14.55 9.0999 14.1471 9.0999 13.65C9.0999 13.153 9.50285 12.75 9.9999 12.75C10.497 12.75 10.8999 13.153 10.8999 13.65Z" fill="currentColor"/>
</svg>