<svg viewBox="0 0 18.20001220703125 18.199996948242188" fill="none" xmlns="http://www.w3.org/2000/svg">
<path fill-rule="evenodd" clip-rule="evenodd" d="M10 2.90002C6.0788 2.90002 2.90002 6.0788 2.90002 10C2.90002 13.9212 6.0788 17.1 10 17.1C13.9212 17.1 17.1 13.9212 17.1 10C17.1 6.0788 13.9212 2.90002 10 2.90002ZM8.88694 7.1506C8.67616 7.44336 8.60002 7.81269 8.60002 8.05001C8.60002 8.38138 8.3314 8.65001 8.00002 8.65001C7.66865 8.65001 7.40002 8.38138 7.40002 8.05001C7.40002 7.62066 7.52389 6.99 7.9131 6.44943C8.32434 5.87827 9.00447 5.45001 10 5.45001C10.9791 5.45001 11.6527 5.84287 12.0685 6.3627C12.4617 6.85419 12.6 7.42731 12.6 7.80001C12.6 8.15223 12.5658 8.54144 12.3648 8.94334C12.1658 9.34128 11.8343 9.69145 11.3488 10.0383C10.9662 10.3115 10.7851 10.5397 10.6974 10.699C10.6132 10.8518 10.6 10.9677 10.6 11.05C10.6 11.3814 10.3314 11.65 10 11.65C9.66865 11.65 9.40002 11.3814 9.40002 11.05C9.40002 10.799 9.44935 10.4774 9.6464 10.1198C9.83991 9.76864 10.1588 9.41354 10.6513 9.06177C11.0408 8.78358 11.2092 8.57124 11.2915 8.40668C11.3718 8.24609 11.4 8.07279 11.4 7.80001C11.4 7.67272 11.3383 7.37083 11.1315 7.11233C10.9474 6.88215 10.621 6.65001 10 6.65001C9.39558 6.65001 9.07571 6.88843 8.88694 7.1506ZM10.9 13.65C10.9 14.1471 10.4971 14.55 10 14.55C9.50297 14.55 9.10002 14.1471 9.10002 13.65C9.10002 13.153 9.50297 12.75 10 12.75C10.4971 12.75 10.9 13.153 10.9 13.65Z" fill="currentColor"/>
</svg>