<svg viewBox="0 0 16.000001907348633 16.000001907348633" fill="none" xmlns="http://www.w3.org/2000/svg">
<path d="M6.00004 14.5L11.6002 14.5C12.4839 14.5 13.2002 13.7837 13.2002 12.9L13.2003 8.10003M6.00004 14.5H5.55375C5.32846 14.5 5.11402 14.4051 4.95881 14.2418C4.72556 13.9964 4.35609 13.6186 4.00004 13.3C3.72099 13.0503 3.28259 12.6022 3.02005 12.3299C2.87808 12.1826 2.80004 11.986 2.80005 11.7815L2.80006 11.3M6.00004 14.5L6.00004 12.1C6.00004 11.6582 5.64187 11.3 5.20004 11.3H2.80006M2.80006 11.3L2.80026 3.29997C2.80028 2.41633 3.51663 1.70001 4.40027 1.70001L6.72818 1.70002M9.45032 5.4417L13.192 1.70001M13.192 1.70001L10.0149 1.70001M13.192 1.70001L13.192 4.87714" stroke="currentColor" stroke-width="1.2" stroke-linecap="round" stroke-linejoin="round"/>
</svg>