<svg viewBox="0 0 16 16" fill="none" xmlns="http://www.w3.org/2000/svg">
<path d="M1.9009 2.98496L2.49914 3.03098L2.49914 3.03097L1.9009 2.98496ZM2.98496 1.90091L3.03097 2.49914L3.03097 2.49914L2.98496 1.90091ZM14.055 8.22488L13.6307 8.64914L14.055 8.22488ZM14.055 9.89062L13.6307 9.46636L14.055 9.89062ZM7.77507 1.94497L8.19934 1.5207V1.5207L7.77507 1.94497ZM6.85186 1.60345L6.80585 1.00522L6.85186 1.60345ZM1.94497 7.77507L1.5207 8.19934L1.94497 7.77507ZM1.60345 6.85186L1.00522 6.80585L1.00522 6.80585L1.60345 6.85186ZM8.22488 14.055L7.80062 14.4793L8.22488 14.055ZM9.89062 14.055L10.3149 14.4793L9.89062 14.055ZM8.64914 13.6307L2.36923 7.35081L1.5207 8.19934L7.80062 14.4793L8.64914 13.6307ZM7.35081 2.36923L13.6307 8.64914L14.4793 7.80062L8.19934 1.5207L7.35081 2.36923ZM13.6307 9.46636L9.46636 13.6307L10.3149 14.4793L14.4793 10.3149L13.6307 9.46636ZM2.20168 6.89788L2.49914 3.03098L1.30267 2.93894L1.00522 6.80585L2.20168 6.89788ZM3.03097 2.49914L6.89788 2.20168L6.80585 1.00522L2.93894 1.30267L3.03097 2.49914ZM2.49914 3.03097C2.521 2.7468 2.74679 2.521 3.03097 2.49914L2.93894 1.30267C2.06462 1.36993 1.36993 2.06462 1.30267 2.93894L2.49914 3.03097ZM13.6307 8.64914C13.8564 8.87481 13.8564 9.24069 13.6307 9.46636L14.4793 10.3149C15.1735 9.62059 15.1735 8.49491 14.4793 7.80062L13.6307 8.64914ZM8.19934 1.5207C7.83235 1.15371 7.32332 0.965411 6.80585 1.00522L6.89788 2.20168C7.06608 2.18874 7.23153 2.24995 7.35081 2.36923L8.19934 1.5207ZM2.36923 7.35081C2.24995 7.23153 2.18874 7.06608 2.20168 6.89788L1.00522 6.80585C0.965411 7.32332 1.15371 7.83235 1.5207 8.19934L2.36923 7.35081ZM7.80062 14.4793C8.49491 15.1735 9.62059 15.1735 10.3149 14.4793L9.46636 13.6307C9.24069 13.8564 8.87481 13.8564 8.64914 13.6307L7.80062 14.4793ZM6.39997 5.49997C6.39997 5.99703 5.99703 6.39997 5.49997 6.39997V7.59997C6.65977 7.59997 7.59997 6.65977 7.59997 5.49997H6.39997ZM5.49997 6.39997C5.00291 6.39997 4.59997 5.99703 4.59997 5.49997H3.39997C3.39997 6.65977 4.34017 7.59997 5.49997 7.59997V6.39997ZM4.59997 5.49997C4.59997 5.00291 5.00291 4.59997 5.49997 4.59997V3.39997C4.34017 3.39997 3.39997 4.34017 3.39997 5.49997H4.59997ZM5.49997 4.59997C5.99703 4.59997 6.39997 5.00291 6.39997 5.49997H7.59997C7.59997 4.34017 6.65977 3.39997 5.49997 3.39997V4.59997Z" fill="currentColor"/>
</svg>