<svg viewBox="0 0 16 16" fill="none" xmlns="http://www.w3.org/2000/svg">
<path d="M1.90103 2.98499L2.49926 3.03101L2.49926 3.03101L1.90103 2.98499ZM2.98508 1.90094L3.0311 2.49917L3.0311 2.49917L2.98508 1.90094ZM14.0551 8.22491L13.6308 8.64917L13.6308 8.64917L14.0551 8.22491ZM14.0551 9.89065L13.6308 9.46639L13.6308 9.46639L14.0551 9.89065ZM7.7752 1.945L8.19946 1.52073L8.19946 1.52073L7.7752 1.945ZM6.85199 1.60348L6.80597 1.00525L6.80597 1.00525L6.85199 1.60348ZM1.94509 7.77511L1.52083 8.19937L1.94509 7.77511ZM1.60357 6.85189L1.00534 6.80588L1.00534 6.80588L1.60357 6.85189ZM8.225 14.055L7.80074 14.4793L8.225 14.055ZM9.89075 14.055L10.315 14.4793L10.315 14.4793L9.89075 14.055ZM8.64927 13.6308L2.36935 7.35084L1.52083 8.19937L7.80074 14.4793L8.64927 13.6308ZM7.35093 2.36926L13.6308 8.64917L14.4794 7.80065L8.19946 1.52073L7.35093 2.36926ZM13.6308 9.46639L9.46648 13.6308L10.315 14.4793L14.4794 10.3149L13.6308 9.46639ZM2.2018 6.89791L2.49926 3.03101L1.30279 2.93897L1.00534 6.80588L2.2018 6.89791ZM3.0311 2.49917L6.898 2.20171L6.80597 1.00525L2.93906 1.3027L3.0311 2.49917ZM2.49926 3.03101C2.52112 2.74683 2.74692 2.52103 3.0311 2.49917L2.93906 1.3027C2.06475 1.36996 1.37005 2.06466 1.30279 2.93897L2.49926 3.03101ZM13.6308 8.64917C13.8565 8.87484 13.8565 9.24072 13.6308 9.46639L14.4794 10.3149C15.1737 9.62062 15.1737 8.49494 14.4794 7.80065L13.6308 8.64917ZM8.19946 1.52073C7.83247 1.15374 7.32344 0.965441 6.80597 1.00525L6.898 2.20171C7.0662 2.18877 7.23165 2.24998 7.35093 2.36926L8.19946 1.52073ZM2.36935 7.35084C2.25007 7.23156 2.18887 7.06611 2.2018 6.89791L1.00534 6.80588C0.965533 7.32335 1.15384 7.83238 1.52083 8.19937L2.36935 7.35084ZM7.80074 14.4793C8.49504 15.1736 9.62071 15.1736 10.315 14.4793L9.46648 13.6308C9.24081 13.8564 8.87493 13.8564 8.64927 13.6308L7.80074 14.4793ZM6.40009 5.5C6.40009 5.99706 5.99715 6.4 5.50009 6.4V7.6C6.65989 7.6 7.60009 6.6598 7.60009 5.5H6.40009ZM5.50009 6.4C5.00304 6.4 4.60009 5.99706 4.60009 5.5H3.40009C3.40009 6.6598 4.34029 7.6 5.50009 7.6V6.4ZM4.60009 5.5C4.60009 5.00294 5.00304 4.6 5.50009 4.6V3.4C4.34029 3.4 3.40009 4.3402 3.40009 5.5H4.60009ZM5.50009 4.6C5.99715 4.6 6.40009 5.00294 6.40009 5.5H7.60009C7.60009 4.3402 6.65989 3.4 5.50009 3.4V4.6Z" fill="currentColor"/>
</svg>