<svg viewBox="0 0 16 16" fill="none" xmlns="http://www.w3.org/2000/svg">
<path d="M9.06065 11.182L7.64643 12.5962C7.08382 13.1588 6.32076 13.4749 5.52511 13.4749C4.72946 13.4749 3.9664 13.1588 3.40379 12.5962C2.84118 12.0336 2.52511 11.2705 2.52511 10.4749C2.52511 9.67922 2.84118 8.91616 3.40379 8.35355L4.818 6.93933M6.93932 4.81801L8.35354 3.4038C8.91615 2.84119 9.67921 2.52512 10.4749 2.52512C11.2705 2.52512 12.0336 2.84119 12.5962 3.4038C13.1588 3.96641 13.4749 4.72947 13.4749 5.52512C13.4749 6.32077 13.1588 7.08383 12.5962 7.64644L11.182 9.06066" stroke="currentColor" stroke-width="1.2" stroke-linecap="round" stroke-linejoin="round"/>
</svg>