<svg viewBox="0 0 16 16" fill="none" xmlns="http://www.w3.org/2000/svg">
<path d="M2.60515 10.3667L2.27182 11.6333C2.07182 12.2333 2.20515 12.9 2.60515 13.4333C3.00515 13.9 3.53848 14.1667 4.20515 14.1667H11.8718C12.4718 14.1667 13.0718 13.9 13.4052 13.3667C13.8052 12.8333 13.9385 12.1667 13.7385 11.5667L13.4052 10.3C13.0052 8.63333 11.5385 8.5 9.87182 8.5H6.20515C4.53848 8.5 3.07182 8.63333 2.60515 10.3667ZM3.53848 11.9667L3.87182 10.7C4.20515 9.56667 5.13848 9.83333 6.20515 9.83333H9.87182C10.9385 9.83333 11.8718 9.56667 12.2052 10.7L12.5385 11.9667C12.6052 12.1667 12.5385 12.4333 12.4052 12.6333C12.3385 12.7 12.1385 12.8333 11.8718 12.8333H4.20515C3.93848 12.8333 3.80515 12.7 3.73848 12.5667C3.53848 12.4333 3.47182 12.1667 3.53848 11.9667Z" fill="currentColor"/>
<path d="M8 7.5C9.65685 7.5 11 6.15685 11 4.5C11 2.84315 9.65685 1.5 8 1.5C6.34315 1.5 5 2.84315 5 4.5C5 6.15685 6.34315 7.5 8 7.5Z" stroke="currentColor" stroke-width="1.2"/>
</svg>