<svg viewBox="0 0 16 15.285714149475098" fill="none" xmlns="http://www.w3.org/2000/svg">
<path d="M1.5 8.00003L0.92 7.84641C0.893333 7.94709 0.893333 8.05298 0.92 8.15366L1.5 8.00003ZM14.5 8.00003L15.0798 8.15442C15.1067 8.05326 15.1067 7.94681 15.0798 7.84565L14.5 8.00003ZM9.71817 8.00003C9.71817 8.95075 8.94746 9.72146 7.99675 9.72146V10.9215C9.61021 10.9215 10.9182 9.6135 10.9182 8.00003H9.71817ZM7.99675 9.72146C7.04603 9.72146 6.27532 8.95075 6.27532 8.00003H5.07532C5.07532 9.6135 6.38329 10.9215 7.99675 10.9215V9.72146ZM6.27532 8.00003C6.27532 7.04932 7.04603 6.27861 7.99675 6.27861V5.07861C6.38329 5.07861 5.07532 6.38657 5.07532 8.00003H6.27532ZM7.99675 6.27861C8.94746 6.27861 9.71817 7.04932 9.71817 8.00003H10.9182C10.9182 6.38657 9.61021 5.07861 7.99675 5.07861V6.27861ZM7.99675 2.75718C4.12213 2.75718 1.60089 5.27571 0.92 7.84641L2.08 8.15366C2.62884 6.0815 4.69469 3.95718 7.99675 3.95718V2.75718ZM0.92 8.15366C1.60094 10.7245 4.12231 13.2429 8 13.2429V12.0429C4.69451 12.0429 2.62879 9.91839 2.08 7.84641L0.92 8.15366ZM8 13.2429C11.8782 13.2429 14.3956 10.7241 15.0798 8.15442L13.9202 7.84565C13.3682 9.91882 11.305 12.0429 8 12.0429V13.2429ZM15.0798 7.84565C14.3954 5.27543 11.8712 2.75718 7.99675 2.75718V3.95718C11.299 3.95718 13.3683 6.08179 13.9202 8.15442L15.0798 7.84565Z" fill="currentColor"/>
</svg>