<svg viewBox="0 0 16 16" fill="none" xmlns="http://www.w3.org/2000/svg">
<path fill-rule="evenodd" clip-rule="evenodd" d="M8.09995 15.2C12.0212 15.2 15.2 12.0212 15.2 8.10001C15.2 4.17879 12.0212 1.00001 8.09995 1.00001C4.17873 1.00001 0.999951 4.17879 0.999951 8.10001C0.999951 12.0212 4.17873 15.2 8.09995 15.2ZM8.99995 11.1C8.99995 11.5971 8.59701 12 8.09995 12C7.6029 12 7.19995 11.5971 7.19995 11.1C7.19995 10.6029 7.6029 10.2 8.09995 10.2C8.59701 10.2 8.99995 10.6029 8.99995 11.1ZM7.49995 8.50001C7.49995 8.83138 7.76858 9.10001 8.09995 9.10001C8.43132 9.10001 8.69995 8.83138 8.69995 8.50001L8.69995 4.50001C8.69995 4.16863 8.43132 3.90001 8.09995 3.90001C7.76858 3.90001 7.49995 4.16863 7.49995 4.50001L7.49995 8.50001Z" fill="currentColor"/>
</svg>