<svg viewBox="0 0 16 16" fill="none" xmlns="http://www.w3.org/2000/svg">
<path fill-rule="evenodd" clip-rule="evenodd" d="M1.21718 11.9543L6.61018 2.40394C7.22743 1.30977 8.77341 1.30977 9.39067 2.40394L14.7818 11.9543C15.4009 13.0485 14.6289 14.4166 13.3925 14.4166H2.60648C1.37196 14.4166 0.599917 13.0485 1.21718 11.9543ZM9 11.9C9 12.397 8.59705 12.8 8.1 12.8C7.60294 12.8 7.2 12.397 7.2 11.9C7.2 11.4029 7.60294 11 8.1 11C8.59705 11 9 11.4029 9 11.9ZM8.10001 9.99997C7.76864 9.99997 7.50001 9.73134 7.50001 9.39997V5.39997C7.50001 5.0686 7.76864 4.79997 8.10001 4.79997C8.43138 4.79997 8.70001 5.0686 8.70001 5.39997L8.70001 9.39997C8.70001 9.73134 8.43138 9.99997 8.10001 9.99997Z" fill="currentColor"/>
</svg>