<svg viewBox="0 0 16 16" fill="none" xmlns="http://www.w3.org/2000/svg">
<path fill-rule="evenodd" clip-rule="evenodd" d="M8.10001 15.2C12.0212 15.2 15.2 12.0212 15.2 8.10001C15.2 4.17879 12.0212 1.00001 8.10001 1.00001C4.17879 1.00001 1.00001 4.17879 1.00001 8.10001C1.00001 12.0212 4.17879 15.2 8.10001 15.2ZM9.00002 11.1C9.00002 11.5971 8.59707 12 8.10002 12C7.60296 12 7.20002 11.5971 7.20002 11.1C7.20002 10.6029 7.60296 10.2 8.10002 10.2C8.59707 10.2 9.00002 10.6029 9.00002 11.1ZM7.50001 8.50001C7.50001 8.83138 7.76864 9.10001 8.10001 9.10001C8.43138 9.10001 8.70001 8.83138 8.70001 8.50001L8.70001 4.50001C8.70001 4.16863 8.43138 3.90001 8.10001 3.90001C7.76864 3.90001 7.50001 4.16863 7.50001 4.50001L7.50001 8.50001Z" fill="currentColor"/>
</svg>