<svg width="116" height="26" viewBox="0 0 116 26" fill="none" xmlns="http://www.w3.org/2000/svg">
<g id="CubeCOS_full_logo/basic">
<g id="CubeCOS logomark">
<path d="M1.27303 5.81678L11.0575 0.103291C11.2981 -0.0344304 11.597 -0.0344304 11.8376 0.103291L21.459 5.46264C21.9985 5.77349 22.0063 6.56441 21.4707 6.88314L11.6629 12.5809C11.4145 12.7304 11.104 12.7304 10.8556 12.5809L1.2575 7.23728C0.721899 6.91855 0.729661 6.1237 1.27303 5.81678Z" fill="#31C4FF"/>
<path d="M23.093 18.5974L23.2056 9.87367C23.2521 9.21654 22.5613 8.77189 22.0063 9.10636L13.6229 13.9069C13.3784 14.0525 12.6565 14.5759 12.6565 15.4809V25.1805C12.6565 25.814 13.328 26.2075 13.8597 25.8848C13.8597 25.8848 22.0373 20.9858 22.2663 20.7537C22.4953 20.5215 23.093 20.1595 23.093 18.6013V18.5974Z" fill="#3DE9E9"/>
<path d="M1.18376 20.7065C0.485147 20.3523 0.0659797 19.6834 0.0853856 18.9594L0 9.51953C0.0194059 8.90568 0.667561 8.53186 1.19152 8.83485L4.21884 10.5741C4.48276 10.7275 4.638 11.0187 4.62248 11.3296L4.53321 16.0908C4.49828 17.0234 4.71175 17.6687 5.17361 18.2314C5.41812 18.5305 5.71697 18.7784 6.04687 18.9712L10.4171 21.58C10.6616 21.7256 10.813 21.9971 10.813 22.2883V25.1726C10.813 25.7982 10.157 26.1917 9.62143 25.8848L1.176 20.7104L1.18376 20.7065Z" fill="#2EB5BD"/>
</g>
<g id="Vector">
<path d="M99.036 7.07182C98.0036 6.49339 96.8043 6.20221 95.442 6.20221C94.0797 6.20221 92.896 6.49339 91.8558 7.07182C90.8156 7.65025 90.0006 8.48052 89.4107 9.55475C88.8207 10.6329 88.5296 11.9275 88.5296 13.4424C88.5296 14.9574 88.8246 16.248 89.4107 17.3498C90.0006 18.4516 90.8118 19.3015 91.8558 19.8996C92.896 20.4977 94.0914 20.7968 95.442 20.7968C96.7927 20.7968 98.0036 20.4977 99.036 19.8996C100.068 19.3015 100.88 18.4516 101.469 17.3498C102.059 16.248 102.35 14.9456 102.35 13.4424C102.35 11.9393 102.056 10.6329 101.469 9.55475C100.88 8.48052 100.068 7.65025 99.036 7.07182ZM99.2533 16.6061C98.8963 17.4167 98.3878 18.0423 97.7358 18.487C97.0837 18.9316 96.3192 19.1559 95.442 19.1559C94.5649 19.1559 93.8003 18.9316 93.1482 18.487C92.4962 18.0423 91.9916 17.4128 91.6423 16.6061C91.2891 15.7994 91.1145 14.5403 91.1145 13.4424C91.1145 12.3446 91.2891 11.0933 91.6423 10.2984C91.9955 9.50359 92.4962 8.88975 93.1482 8.46478C93.8003 8.03981 94.5649 7.82339 95.442 7.82339C96.3192 7.82339 97.0799 8.03587 97.7358 8.46478C98.3878 8.88975 98.8963 9.50359 99.2533 10.2984C99.6104 11.0933 99.7928 12.3485 99.7928 13.4424C99.7928 14.5363 99.6143 15.7955 99.2533 16.6061Z" fill="#143F66"/>
<path d="M115.244 14.9298C114.972 14.4576 114.592 14.0563 114.103 13.7257C113.614 13.3952 113.055 13.1158 112.422 12.8837L110.249 12.0613C109.833 11.9078 109.426 11.7465 109.034 11.5734C108.638 11.4002 108.421 11.3648 108.021 11.0225C107.749 10.7903 107.563 10.4755 107.563 10.0702C107.563 9.36981 108.06 8.67726 108.933 8.31918C111.479 7.2843 113.92 9.26356 113.92 9.26356L115.135 7.96898C114.545 7.42203 113.835 6.98919 113.004 6.67046C112.174 6.35173 111.289 6.19434 110.357 6.19434C109.352 6.19434 108.456 6.36354 107.668 6.70194C106.88 7.04034 106.259 7.50072 105.816 8.08703C105.37 8.67333 105.149 9.33439 105.149 10.0742C105.149 10.7628 105.312 11.3451 105.634 11.8213C105.956 12.2974 106.368 12.6948 106.86 13.0057C107.357 13.3165 107.862 13.5684 108.378 13.7612L110.575 14.6032C111.064 14.796 111.498 14.981 111.879 15.1581C112.259 15.3351 112.558 15.5555 112.771 15.8152C112.985 16.0749 113.094 16.4251 113.094 16.8579C113.094 17.4442 112.857 18.0463 112.348 18.4122C111.84 18.7821 111.18 19.0103 110.233 19.0103C109.457 19.0103 108.7 18.8569 107.963 18.5499C107.221 18.243 106.368 17.7905 105.793 17.2947L104.439 18.7073C105.172 19.3566 106.022 19.8681 106.989 20.2341C107.959 20.604 108.987 20.7889 110.078 20.7889C111.242 20.7889 112.24 20.6 113.07 20.2262C113.901 19.8524 114.541 19.3527 114.988 18.7349C115.434 18.1171 115.655 17.4324 115.655 16.6809C115.655 15.9804 115.519 15.3941 115.248 14.922L115.244 14.9298Z" fill="#143F66"/>
<path d="M82.4595 18.8844C79.568 18.8844 77.771 16.6691 77.771 13.4582C77.771 10.2473 79.6805 8.09096 82.5255 8.09096C83.651 8.09096 84.6174 8.45297 85.5644 9.22422L86.7792 7.92963C85.6149 6.91442 84.0469 6.33599 82.4672 6.33599C80.4956 6.33599 78.7064 7.00886 77.4217 8.22868C76.0478 9.53507 75.3259 11.3491 75.3259 13.5329C75.3259 15.7168 76.0322 17.5387 77.3751 18.8097C78.6171 19.9862 80.383 20.6354 82.3469 20.6354C84.2293 20.6354 85.8283 20.0137 87.0975 18.7821L85.8866 17.5308C84.8736 18.4398 83.748 18.8844 82.4556 18.8844H82.4595Z" fill="#143F66"/>
<path d="M37.8531 18.1919C37.6047 18.5027 37.2942 18.7428 36.9294 18.912C36.5646 19.0812 36.157 19.1677 35.7185 19.1677C35.0625 19.1677 34.492 18.9907 34.0069 18.6326C33.5178 18.2784 33.1414 17.7826 32.8736 17.1531C32.6058 16.5235 32.4699 15.7955 32.4699 14.9731C32.4699 14.1507 32.6058 13.4346 32.8813 12.8128C33.1569 12.1911 33.5372 11.7071 34.0302 11.3569C34.5192 11.0067 35.082 10.8336 35.7223 10.8336C36.4326 10.8336 37.0187 11.0382 37.4805 11.4435C37.9424 11.8488 38.2335 12.3407 38.3538 12.9112H39.5259C39.4366 12.2816 39.2115 11.7307 38.8583 11.2586C38.5051 10.7864 38.0588 10.4204 37.5155 10.1568C36.9721 9.89708 36.3705 9.7633 35.7029 9.7633C34.8297 9.7633 34.0651 9.98759 33.4092 10.4401C32.7494 10.8926 32.237 11.5104 31.8645 12.3013C31.4919 13.0922 31.3094 13.9973 31.3094 15.0125C31.3094 16.0277 31.4919 16.917 31.8567 17.7039C32.2215 18.4909 32.7338 19.1087 33.3936 19.5612C34.0534 20.0137 34.8336 20.242 35.7262 20.242C36.421 20.242 37.0381 20.1042 37.5775 19.8327C38.117 19.5612 38.5556 19.1874 38.8971 18.7073C39.2387 18.2312 39.4522 17.6882 39.5375 17.0744H38.3654C38.28 17.5033 38.1093 17.8771 37.8609 18.1879L37.8531 18.1919Z" fill="#143F66"/>
<path d="M48.3517 16.1615C48.3517 16.7792 48.2159 17.3026 47.9481 17.7275C47.6803 18.1525 47.3348 18.4752 46.9195 18.6916C46.5043 18.908 46.0696 19.0221 45.6193 19.0221C44.9013 19.0221 44.3114 18.7821 43.8495 18.302C43.3915 17.822 43.1587 17.1845 43.1587 16.3936V9.90495H42.0021V16.4644C42.0021 17.2632 42.1418 17.94 42.4251 18.487C42.7085 19.0379 43.0966 19.451 43.5895 19.7344C44.0824 20.0177 44.6491 20.1593 45.2856 20.1593C46.0191 20.1593 46.6401 19.9862 47.1446 19.6438C47.6492 19.3015 48.0218 18.8687 48.2547 18.3493H48.3478V20.0295H49.5044V9.90495H48.3478V16.1615H48.3517Z" fill="#143F66"/>
<path d="M59.2811 10.4244C58.6601 9.98759 57.9421 9.76723 57.1232 9.76723C56.5099 9.76723 56.0054 9.87741 55.6056 10.0938C55.2059 10.3102 54.8798 10.5818 54.6353 10.9005C54.3908 11.2231 54.2045 11.534 54.0725 11.837H53.9678V6.5288H52.8034V20.0295H53.9289V18.1525H54.0725C54.2084 18.4594 54.3986 18.7742 54.6431 19.0969C54.8915 19.4196 55.2175 19.6911 55.6211 19.9114C56.0248 20.1318 56.5332 20.242 57.1387 20.242C57.9537 20.242 58.6717 20.0216 59.2888 19.5809C59.906 19.1402 60.3872 18.5303 60.7326 17.7433C61.0781 16.9563 61.2488 16.0395 61.2488 14.9928C61.2488 13.9461 61.0742 13.0371 60.7288 12.2541C60.3833 11.471 59.8982 10.8572 59.2772 10.4204L59.2811 10.4244ZM59.7313 17.1058C59.4945 17.7394 59.1452 18.2391 58.6834 18.6129C58.2215 18.9867 57.6626 19.1717 56.999 19.1717C56.3353 19.1717 55.8036 18.9907 55.3495 18.6326C54.8954 18.2745 54.5499 17.7787 54.3093 17.1491C54.0687 16.5195 53.9484 15.7955 53.9484 14.977C53.9484 14.1586 54.0687 13.4542 54.3054 12.8325C54.5422 12.2108 54.8876 11.7229 55.3417 11.3687C55.7958 11.0146 56.3469 10.8375 56.9951 10.8375C57.6432 10.8375 58.2254 11.0225 58.6873 11.3884C59.1452 11.7544 59.4945 12.2502 59.7313 12.8758C59.9681 13.5015 60.0845 14.2019 60.0845 14.977C60.0845 15.7522 59.9642 16.4723 59.7274 17.1058H59.7313Z" fill="#143F66"/>
<path d="M70.5792 10.9831C70.1794 10.5739 69.7253 10.267 69.2247 10.0663C68.7201 9.8656 68.2 9.76723 67.6567 9.76723C66.795 9.76723 66.0343 9.99152 65.3784 10.444C64.7225 10.8965 64.2063 11.5183 63.8376 12.3092C63.4689 13.1001 63.2826 14.0091 63.2826 15.0282C63.2826 16.0473 63.4689 16.9563 63.8376 17.7394C64.2063 18.5224 64.7341 19.1362 65.4133 19.577C66.0926 20.0177 66.8998 20.238 67.8313 20.238C68.4989 20.238 69.0888 20.1278 69.605 19.9114C70.1173 19.695 70.5481 19.4038 70.8936 19.0457C71.239 18.6837 71.4874 18.2902 71.6387 17.8653L70.5404 17.5033C70.4162 17.8062 70.2299 18.0856 69.9854 18.3375C69.7409 18.5893 69.4381 18.79 69.0811 18.9395C68.724 19.089 68.3087 19.1638 67.8352 19.1638C67.1405 19.1638 66.5428 18.9985 66.0343 18.668C65.5259 18.3375 65.1378 17.8731 64.8622 17.275C64.6022 16.7123 64.4702 16.0552 64.4547 15.3155H71.8871V14.737C71.8871 13.8871 71.7707 13.1552 71.5378 12.5335C71.305 11.9118 70.9867 11.3963 70.5869 10.9831H70.5792ZM64.4586 14.2845C64.4935 13.7218 64.6216 13.1945 64.8545 12.7105C65.1261 12.1478 65.5026 11.6953 65.9839 11.353C66.4651 11.0107 67.0202 10.8375 67.6567 10.8375C68.2544 10.8375 68.7822 10.991 69.2402 11.294C69.6982 11.597 70.0552 12.0101 70.3114 12.5295C70.5714 13.0489 70.6995 13.6352 70.6995 14.2845H64.4586Z" fill="#143F66"/>
</g>
</g>
</svg>
